<svg version="1.1" xmlns="http://www.w3.org/2000/svg" xmlns:xlink="http://www.w3.org/1999/xlink" width="20" height="20" viewBox="0 0 20 20">
    <path d="M4.116 2.083h11.769c1.117 0 2.032 0.914 2.032 2.032v11.769c0 1.117-0.914 2.032-2.032 2.032h-11.769c-1.117 0-2.032-0.914-2.032-2.033v-11.768c0-1.117 0.914-2.032 2.032-2.032v0zM13.617 3.843c-0.392 0-0.713 0.321-0.713 0.713v1.706c0 0.392 0.321 0.713 0.713 0.713h1.79c0.392 0 0.713-0.321 0.713-0.713v-1.706c0-0.392-0.321-0.712-0.713-0.712-0.001 0-1.79 0-1.79 0zM16.127 8.778h-1.393c0.132 0.431 0.203 0.887 0.203 1.357 0 2.633-2.205 4.77-4.921 4.77s-4.922-2.135-4.922-4.769c0-0.471 0.071-0.929 0.202-1.357h-1.452v6.688c0 0.346 0.283 0.629 0.629 0.629h11.026c0.346 0 0.629-0.283 0.629-0.629v-6.689zM10.015 6.885c-1.756 0-3.179 1.38-3.179 3.082s1.424 3.082 3.179 3.082 3.179-1.38 3.179-3.082c0.001-1.703-1.423-3.082-3.179-3.082z" fill="#444444"></path>
</svg>
